<?xml version="1.0" encoding="utf-8"?>
<!DOCTYPE svg PUBLIC "-//W3C//DTD SVG 1.1//EN" "http://www.w3.org/Graphics/SVG/1.1/DTD/svg11.dtd">
<svg version="1.1" id="Layer_1" xmlns="http://www.w3.org/2000/svg" xmlns:xlink="http://www.w3.org/1999/xlink" x="0px" y="0px"
	 width="369px" height="374px" viewBox="0 0 369 374" enable-background="new 0 0 369 374" xml:space="preserve">
<path fill="#FFFFFF" d="M0,0h202.8c-8.72,1.43-17.51,2.48-26.08,4.78c-3.56,1.18-6.55,3.66-10.21,4.61
	c-3.45,1.44-7.2-1.04-10.63,0.54c-6.38,2.95-12.72,6.15-17.98,10.91c-7.09,4.43-13.58,9.72-19.78,15.31
	c-2.95,2.7-6.44,4.9-8.74,8.22c-6.49,11.67-9.73,24.75-15.07,36.93c-5.19,12.29-7.27,25.54-10.74,38.35
	c-2.01,4.85-2.92,10.08-2.62,15.33c0.41,12.74-1.22,25.67,1.76,38.21c2.79,11.1,2.79,22.78,6.38,33.701
	c1.79,9.789,6.8,18.619,12.03,26.959c1.89,3.2,4.74,5.61,7.43,8.101c-1.82,3.34-5.08,5.33-7.88,7.729
	C90.14,259.54,79.42,269.22,68,278.03c-7.17,6.18-14.54,12.1-21.99,17.93c-5.33,3.851-8.19,9.89-12.01,15.05
	c-3.16,4.84-7.26,9.09-9.69,14.381c-1.22,2.31-2.05,5-4.2,6.659c-2.04,1.64-4.28,3.03-6.05,4.99c-4.11,4.59-9.07,8.46-12.27,13.81
	c-2.22,3.01-0.93,6.95,0.02,10.19c3.12-4.11,4.45-9.36,8.22-13.021c4.07-3.949,7.73-8.39,12.38-11.689
	c4.91-3.51,5.97-9.91,9.58-14.46c4.11-5.32,7.76-10.97,11.6-16.49c6.3-8.069,15.6-12.899,22.93-19.89
	c4.75-4.65,10.63-7.93,15.44-12.521c6.29-6.06,13.4-11.22,19.49-17.51c3.58-3.729,7.82-6.78,12.43-9.14
	c11.31,7.979,22.92,15.56,35.27,21.83c5.03,3.209,10.73,5,16.38,6.75c5.66,1.689,10.88,4.67,16.68,5.92
	c16.22,2.91,32.53,5.8,49.05,5.91c-2,4-5.039,7.289-7.81,10.75c-7.64,8.949-11.8,20.369-20.05,28.859
	c-1.851,1.311-4.221,0.98-6.36,1.051c-8.261-0.601-16.02,2.859-23.93,4.709c-7.03-8.709-16.07-15.39-24.02-23.16
	c-6.68-7.959-14.94-14.42-21.4-22.58c-2.87-4.359-7.31-7.35-10.31-11.609c-1.58-2.13-2.93-4.48-4.94-6.23
	c-2.04-1.51-4.45-2.399-6.73-3.459c-0.83,0.979-2.69,1.629-2.5,3.18c-0.22,2.15,2.28,2.74,3.64,3.79
	c3.53,1.79,5.17,5.569,7.69,8.409c3.01,3.4,6.63,6.281,9.04,10.201c4.78,6.08,10.56,11.289,16.19,16.549
	c9.59,11.61,22.9,19.621,31.38,32.221c8.54-3.34,17.571-6.57,26.86-5.96c-1.14,3.079-2.529,6.06-3.67,9.14
	c-3.47,10.26-11.41,18.301-14.82,28.59c1.44,0.25,3.67,2.471,4.6,0.311c3.819-7.32,8.92-13.98,11.71-21.82
	c2.42-4.63,4.1-9.609,6.67-14.15c1.641-3.209,5.05-5.189,8.59-5.42c12.721-1.209,25.9-1.06,37.87-6.17
	c3.92-1.8,8.28-3.66,12.67-2.81c6.99,7.79,14.31,15.44,23.091,21.271c6.239-3.32,12.389-6.801,18.809-9.721
	c5.921-5.391,13.371-8.58,19.69-13.449c4.08-3.201,8.83-5.801,11.78-10.211c1.51-1.8,2.64-4.41,5.06-5.09
	c3.46,0.74,6.271,3.54,9.91,3.561c5.86-0.23,11.141-4.641,11.54-10.67c-3.479-0.261-4.58,3.18-6.62,5.229
	c-1.25,0.28-2.239-0.13-2.97-1.22c-0.47-4.16,2.26-8.59-0.58-12.35c-0.479,0.139-1.439,0.43-1.92,0.579
	c-0.51,3.78-1.08,7.57-2.479,11.14c-3.131-0.619-6.33-0.939-9.421-1.719c-3.109-1.921-5.26-4.961-7.619-7.681
	c-0.811,1.04-1.601,2.101-2.381,3.17c2.11,3.14,5.091,5.479,7.841,8.021c-5.04,8.949-14.24,14.289-22.551,19.799
	c-5.609,2.461-9.68,7.391-15.43,9.541c-4.271,1.789-7.92,4.869-12.37,6.229c-3.27-1.25-5.67-4.03-8.27-6.271
	c-2.67-2.729-6.051-4.859-7.91-8.279c0.13-2.48,3.16-2.2,4.949-1.96c3.541,1.13,6.441,3.61,9.4,5.79
	c2.36,2.27,5.881,1.449,8.84,1.48c3.851-0.07,5.871-4.201,6.211-7.551c-2.58,0.15-4.351,2.051-6.48,3.23
	c-2.02,0.52-4.109,0.199-6.15,0.119c-0.02-4.619,5.791-5.379,7.141-9.379c0.3-2.58,0.31-5.211,0.02-7.78
	c-1.189-0.75-2.33-0.69-3.4,0.18c-0.539,2.87-0.639,5.82-1.479,8.64c-2.89,0.681-5.81,1.24-8.78,1.451
	c0.53-3.921,1.59-7.91,0.791-11.861c-1.381-2.18-3.67-3.619-6.281-3.659c1.971,3.739,2.83,7.771,2.301,12
	c-1.98,1.319-4.131,2.37-6.54,2.59c-2.78-4.67-1.851-10.8-5.75-14.851c-0.45,1.11-1.55,2.11-1.36,3.391
	c0.471,3.66,1.11,7.3,1.24,10.99c-5.59-2.43-10.35-6.49-14.971-10.4c-3.989-4.18-9.059-7.061-13.289-10.92
	c-1.59-2.92,1.1-5.5,3.4-6.93c4.529-2.051,9.58-0.83,14.35-1.09c6.73,0.08,13.26-1.73,19.869-2.73
	c9.111-2.359,17.851-6.1,25.98-10.83c5.86-2.96,11.87-5.63,17.98-8.05c4.12-1.57,7.34-4.66,10.68-7.42
	c6.18-5.82,13.09-11,17.96-18.06c4.09-4.871,7.86-10.121,9.72-16.291c3.78-8.899,5.021-18.56,6.851-27.97
	c2.04-12.67,5.1-25.24,5.989-38.06c-0.51-11.4,1.33-23.05-1.699-34.2c-1.41-8.73-4.15-17.14-6.59-25.61
	c-5.311-15.11-13.551-29.04-23.32-41.68c-4.03-4.63-8.01-9.43-13.271-12.72c-7.06-4.58-13.29-10.49-21.04-13.95
	c-3.82-1.7-6.92-4.64-10.75-6.33c-8.399-3.81-16.33-8.61-24.83-12.2c-3.76-1.02-7.41-2.34-10.97-3.9
	c-6.271-1.64-12.45-3.66-18.75-5.2c-4.89-1.03-9.97-0.07-14.819-1.28H369v374H0V0z"/>
<path fill="#090909" d="M202.8,0h19.181c4.85,1.21,9.93,0.25,14.819,1.28c6.3,1.54,12.479,3.56,18.75,5.2
	c3.56,1.56,7.21,2.88,10.97,3.9c8.5,3.59,16.431,8.39,24.83,12.2c3.83,1.69,6.93,4.63,10.75,6.33c7.75,3.46,13.98,9.37,21.04,13.95
	c5.261,3.29,9.24,8.09,13.271,12.72c9.77,12.64,18.01,26.57,23.32,41.68c2.439,8.47,5.18,16.88,6.59,25.61
	c3.029,11.15,1.189,22.8,1.699,34.2c-0.89,12.82-3.949,25.39-5.989,38.06c-1.83,9.41-3.07,19.07-6.851,27.97
	c-1.859,6.17-5.63,11.42-9.72,16.291c-4.87,7.06-11.78,12.239-17.96,18.06c-3.34,2.76-6.56,5.85-10.68,7.42
	c-6.11,2.42-12.12,5.09-17.98,8.05c-8.13,4.73-16.869,8.471-25.98,10.83c-6.609,1-13.139,2.811-19.869,2.73
	c-4.77,0.26-9.82-0.961-14.35,1.09c-2.301,1.43-4.99,4.01-3.4,6.93c4.23,3.859,9.3,6.74,13.289,10.92
	c4.621,3.91,9.381,7.971,14.971,10.4c-0.13-3.69-0.77-7.33-1.24-10.99c-0.189-1.28,0.91-2.28,1.36-3.391
	c3.899,4.051,2.97,10.181,5.75,14.851c2.409-0.22,4.56-1.271,6.54-2.59c0.529-4.229-0.33-8.261-2.301-12
	c2.611,0.04,4.9,1.479,6.281,3.659c0.799,3.951-0.261,7.94-0.791,11.861c2.971-0.211,5.891-0.771,8.78-1.451
	c0.841-2.819,0.94-5.77,1.479-8.64c1.07-0.87,2.211-0.93,3.4-0.18c0.29,2.569,0.28,5.2-0.02,7.78c-1.35,4-7.16,4.76-7.141,9.379
	c2.041,0.08,4.131,0.4,6.15-0.119c2.13-1.18,3.9-3.08,6.48-3.23c-0.34,3.35-2.36,7.48-6.211,7.551
	c-2.959-0.031-6.479,0.789-8.84-1.48c-2.959-2.18-5.859-4.66-9.4-5.79c-1.789-0.24-4.819-0.521-4.949,1.96
	c1.859,3.42,5.24,5.55,7.91,8.279c2.6,2.24,5,5.021,8.27,6.271c4.45-1.36,8.1-4.44,12.37-6.229c5.75-2.15,9.82-7.08,15.43-9.541
	c8.311-5.51,17.511-10.85,22.551-19.799c-2.75-2.541-5.73-4.881-7.841-8.021c0.78-1.069,1.57-2.13,2.381-3.17
	c2.359,2.72,4.51,5.76,7.619,7.681c3.091,0.779,6.29,1.1,9.421,1.719c1.399-3.569,1.97-7.359,2.479-11.14
	c0.48-0.149,1.44-0.44,1.92-0.579c2.84,3.76,0.11,8.189,0.58,12.35c0.73,1.09,1.72,1.5,2.97,1.22c2.04-2.05,3.141-5.49,6.62-5.229
	c-0.399,6.029-5.68,10.439-11.54,10.67c-3.64-0.021-6.45-2.82-9.91-3.561c-2.42,0.68-3.55,3.29-5.06,5.09
	c-2.95,4.41-7.7,7.01-11.78,10.211c-6.319,4.869-13.77,8.059-19.69,13.449c-6.42,2.92-12.569,6.4-18.809,9.721
	c-8.781-5.83-16.101-13.48-23.091-21.271c-4.39-0.851-8.75,1.01-12.67,2.81c-11.97,5.11-25.149,4.961-37.87,6.17
	c-3.54,0.23-6.949,2.211-8.59,5.42c-2.57,4.541-4.25,9.521-6.67,14.15c-2.79,7.84-7.891,14.5-11.71,21.82
	c-0.93,2.16-3.16-0.061-4.6-0.311c3.41-10.289,11.35-18.33,14.82-28.59c1.141-3.08,2.53-6.061,3.67-9.14
	c-9.289-0.61-18.32,2.62-26.86,5.96c-8.48-12.6-21.79-20.61-31.38-32.221c-5.63-5.26-11.41-10.469-16.19-16.549
	c-2.41-3.92-6.03-6.801-9.04-10.201c-2.52-2.84-4.16-6.619-7.69-8.409c-1.36-1.05-3.86-1.64-3.64-3.79
	c-0.19-1.551,1.67-2.2,2.5-3.18c2.28,1.06,4.69,1.949,6.73,3.459c2.01,1.75,3.36,4.101,4.94,6.23c3,4.26,7.44,7.25,10.31,11.609
	c6.46,8.16,14.72,14.621,21.4,22.58c7.95,7.771,16.99,14.451,24.02,23.16c7.91-1.85,15.669-5.31,23.93-4.709
	c2.14-0.07,4.51,0.26,6.36-1.051c8.25-8.49,12.41-19.91,20.05-28.859c2.771-3.461,5.81-6.75,7.81-10.75
	c-16.52-0.11-32.83-3-49.05-5.91c-5.8-1.25-11.02-4.23-16.68-5.92c-5.65-1.75-11.35-3.541-16.38-6.75
	c-12.35-6.271-23.96-13.851-35.27-21.83c-4.61,2.359-8.85,5.41-12.43,9.14c-6.09,6.29-13.2,11.45-19.49,17.51
	c-4.81,4.591-10.69,7.87-15.44,12.521c-7.33,6.99-16.63,11.82-22.93,19.89c-3.84,5.521-7.49,11.17-11.6,16.49
	c-3.61,4.55-4.67,10.95-9.58,14.46c-4.65,3.3-8.31,7.74-12.38,11.689c-3.77,3.66-5.1,8.91-8.22,13.021
	c-0.95-3.24-2.24-7.181-0.02-10.19c3.2-5.35,8.16-9.22,12.27-13.81c1.77-1.96,4.01-3.351,6.05-4.99c2.15-1.659,2.98-4.35,4.2-6.659
	c2.43-5.291,6.53-9.541,9.69-14.381c3.82-5.16,6.68-11.199,12.01-15.05c7.45-5.83,14.82-11.75,21.99-17.93
	c11.42-8.811,22.14-18.49,32.67-28.351c2.8-2.399,6.06-4.39,7.88-7.729c-2.69-2.49-5.54-4.9-7.43-8.101
	c-5.23-8.34-10.24-17.17-12.03-26.959c-3.59-10.921-3.59-22.601-6.38-33.701c-2.98-12.54-1.35-25.47-1.76-38.21
	c-0.3-5.25,0.61-10.48,2.62-15.33c3.47-12.81,5.55-26.06,10.74-38.35c5.34-12.18,8.58-25.26,15.07-36.93
	c2.3-3.32,5.79-5.52,8.74-8.22c6.2-5.59,12.69-10.88,19.78-15.31c5.26-4.76,11.6-7.96,17.98-10.91c3.43-1.58,7.18,0.9,10.63-0.54
	c3.66-0.95,6.65-3.43,10.21-4.61C185.29,2.48,194.08,1.43,202.8,0 M187.23,7.53c-3.51,0.99-7.331,0.74-10.681,2.31
	c-8.36,4.61-17.56,8.15-27.16,8.84c-2.31,0.57-4.16,2.28-5.91,3.81c-3.4,3.41-7.99,5.21-11.59,8.37
	c-5.29,4.02-10.19,8.5-15.35,12.69c-4.34,3.41-5.86,8.97-7.97,13.83c-3.35,7.53-5.41,15.55-8.77,23.07
	c-5.22,11.84-7.82,24.58-10.69,37.14c-1.08,3.75-2.83,7.42-2.66,11.42c-0.04,12.01-0.15,24.021,0.08,36.03
	c1.24,10.72,3.99,21.23,4.99,31.99c2.43,13.479,7.47,26.68,16.02,37.489c3.05,3.2,7.07,5.25,11.3,6.391
	c3,4.779,8.14,7.35,12.66,10.449c8.11,5.381,16.8,9.791,25.31,14.471c6.05,2.49,12.52,3.87,18.47,6.66
	c4.32,2.33,9.15-0.09,13.73,0.02c-1.52-1.22-3.99-2.13-3.26-4.55c1.65,0.37,3.24,0.931,4.75,1.69c0.02-0.75,0.061-2.25,0.09-3
	c1.25-0.12,2.5-0.25,3.76-0.37c0.07-0.98,0.16-1.95,0.25-2.921c4.5,0.291,6.4-3.899,9.221-6.539c4.64-3.59,6.34-9.521,10.38-13.67
	c-1.421,5.22-3.681,10.189-6.37,14.88c-1.891,3.04-5.311,4.54-7.78,7.01c-3.64,3.69-7.34,7.33-11,11.01
	c8.24,1.97,16.71,2.681,25.101,3.79c6.52,1.471,13.27,0.32,19.85,1.26c7.32,0.561,14.67,0.36,22,0.311
	c13.96-0.71,27.48-5.24,39.65-12.01c-0.42-6.36-3.351-12.19-4.83-18.33c-2.771,1.89-4.85,4.82-8.03,6.039
	c-8.87,1.551-17.81-0.629-26.011-3.989c-2.67-1.3-5.789-0.32-8.489-1.521c-3.7-1.529-8.06-1.959-11.79-0.31
	c-2.05,1.11-4.029-0.79-5.98-1.271c-0.039,1.791,0.121,3.621-0.209,5.4c-5.17,3.471-8.33,9.11-11.75,14.18
	c-0.281,0.01-0.84,0.041-1.121,0.051c1.82-9.69,4.371-19.73,10.57-27.66c1.04-1.54,2.01-3.23,3.79-4.021
	c-3.409,6.771-10.079,12.47-9.6,20.69c1.55-0.85,3.909-0.92,4.63-2.801c1.15-2.799,2.58-5.619,2.609-8.709
	c3.541-1.381,7.15-4.07,11.11-2.42c3.94,0.879,6.7,4.83,11.011,4.1c-3.66-3.37-8.011-6.21-10.551-10.6
	c4.29,2.569,7.881,6.14,12.17,8.709c6.53,3.41,13.791,4.931,20.91,6.561c3.41,0.18,6.91,0.49,10.29-0.18
	c3.32-1.811,5.771-4.93,7.13-8.43c0.41-3.931,0.061-7.9-0.33-11.82c-1.26-2.061-3.449-3.36-5.56-4.4c-1.021-0.3-2.64-0.4-3.101,0.83
	c-2.99,3.15,2.49,8.04-1.09,10.859c-2.24,0.48-4.51,0.82-6.789,1.061c-0.07-0.47-0.221-1.43-0.301-1.9
	c2.32,0,4.641-0.039,6.971-0.02c0.17-0.689,0.5-2.05,0.67-2.74c-1.58-1.63-3.221-3.199-5.021-4.58
	c-1.771,1.32-3.04,3.131-4.181,4.99c-0.469-2.47-1.489-4.7-3.629-6.13c-1.41,0.63-2.791,1.3-4.17,1.97
	c-1.621-1.97-3.641-3.609-6.271-3.85c-1.04,2.26-2.181,4.529-2.46,7.04c-6.49-3.95-12.4-9.38-20.09-10.8
	c-1.46,3.09-3.77,5.63-6.58,7.539c5.891-8.029,8.22-17.84,11.3-27.14c0.79-2.83,2.63-5.93,0.72-8.729c-1.1,0.6-2.18,1.199-3.27,1.8
	c0.12-0.511,0.359-1.53,0.48-2.04c4.709-0.68,4.539-7.2,2.799-10.6c-0.739,0.35-2.219,1.07-2.969,1.42
	c1.369-2.03,2.6-4.62,5.369-4.87c6.37-1.25,12.35-4.86,18.98-4.25c2.06,0.82,4.109,1.67,6.23,2.34
	c-2.121,2.09-4.531,3.85-7.041,5.43c-2.65,1.591-4.34,4.261-6.76,6.13c-4.12,2.86-6.72,7.26-10.359,10.641
	c-2.59,2.25-2.99,5.67-2.851,8.899c3.3-0.37,6.399-1.81,9.38-3.18c3.801-4.431,8.43-8.149,13.53-11.01
	c2.84-1.66,6.28-1.511,9.239-2.89c3.861-1.5,7.771,0.859,11.69,0.629c-0.239,0.99-0.47,1.99-0.7,2.99c3.32,1.1,6.69,2.4,9.311,4.811
	c-0.02,3.49-0.881,6.96-2.35,10.119c-2.57,3.57-3.291,8.08-6.08,11.521c1.24,1.16,2.449,2.37,3.93,3.229
	c0.91-1.449,1.4-5.209,3.689-3.08c1.7,1.771-0.81,3.36-1.49,4.99c0.83,1.7,1.631,3.42,2.461,5.12c-3.19,3.47-2.42,8.29-2.041,12.591
	c1.871,6.659,5.941,12.399,7.83,19.069c4.121-1.989,8.291-3.88,12.53-5.62c7.44-3.02,13-9.029,18.91-14.24
	c5.91-5.09,10.61-11.39,15.05-17.739c8.091-13.87,8.99-30.25,12.08-45.66c0.851-6.83,3.11-13.44,3.34-20.36
	c1.431-10.03,0.61-20.22,0.73-30.32c-3.32-21.78-9.39-43.74-21.97-62.12c-5.021-7.81-10.44-15.51-17.41-21.71
	c-9-6.05-17.36-13.15-27.271-17.73c-6.14-4.5-13.369-7.04-19.89-10.9c-5.149-2.68-10.37-5.34-16.04-6.74
	c-6.98-3.33-14.63-4.68-21.949-7.03c-6.461-1.93-13.301-0.26-19.74-2.15c-4.971-0.14-9.98-0.29-14.94,0.06
	C198.55,6.3,192.721,5.9,187.23,7.53 M244.391,195.18c-1.49,0.04-1.761,2.771-0.201,2.9C245.62,197.96,246.08,195.23,244.391,195.18
	 M243.62,199.03c-1.12,0.909-0.03,3.409,1.409,2.319C246.25,200.47,245,197.82,243.62,199.03 M267.9,199.689
	c3.449,3.791,8.689,7.261,14.039,5.641C279.34,200.24,273.24,198.24,267.9,199.689 M262.58,203.58c-0.061,0.66-0.16,1.99-0.21,2.66
	c2.45,0.29,5.25-0.5,7.351,1.14c2.689,1.86,6.109,2.04,9.27,2.229c-0.02-1-0.2-1.959-0.551-2.879
	c-3.869-0.391-6.949-2.971-10.489-4.301C266.061,202.18,264.26,202.83,262.58,203.58 M284.221,207.22
	c2.939,0.39,6.549,1.12,8.959-1.069c-2.02-3.101-5.9-3.91-9.359-3.67C281.37,203.05,281.93,206.811,284.221,207.22 M255.221,207.28
	c0.119,2.42,0.829,4.739,1.539,7.05c4.4-0.11,8.5,1.34,12.65,2.57c0.14-3.19,0.369-6.461-0.801-9.49
	c-0.709-0.08-2.129-0.221-2.84-0.29c-0.85,2.069-1.35,4.239-1.51,6.479c-0.279,0.051-0.859,0.16-1.15,0.221
	c-1.27-1.961-0.479-4.391-0.59-6.561C260.15,206.42,257.561,206.26,255.221,207.28 M280.35,210.72c2.09-0.09,4.41,0.091,5.86-1.75
	c-1.8-1.27-3.96-1.62-6.09-1.86C280.17,208.32,280.25,209.52,280.35,210.72 M287.73,208.35c1,2.19,2.109,4.34,3.43,6.36
	C292.34,211.91,291.609,207.83,287.73,208.35 M270.42,210.87c-0.05,3.021-0.46,8.489,4.1,7.83c0.01-1.521,0.01-3.04,0-4.55
	c0.5,0.05,1.5,0.16,1.99,0.209c0.561,2.15,1.43,4.201,2.641,6.07c1.369-1.27,2.859-2.55,3.399-4.42c-0.38-1.779-1.6-3.229-2.45-4.81
	c-2.57,0.54-4.859-0.86-7.119-1.82C272.34,209.75,271.061,210.49,270.42,210.87 M250.4,212.061c-0.041,0.779-0.131,2.33-0.17,3.109
	c1.41-0.51,2.84-1,4.26-1.48c0.01-0.609,0.029-1.83,0.039-2.439C253.15,211.52,251.77,211.78,250.4,212.061 M283.27,213.77
	c0.09,2.051,0.141,4.101,0.28,6.15c1.271-0.13,2.53-0.3,3.8-0.51c2.5-1.96,0.92-5.94-1.31-7.53
	C285.35,212.359,283.971,213.3,283.27,213.77 M242.13,215.34c0.46,1.1,0.931,2.19,1.399,3.301c1.73,0.01,3.471-0.011,5.211-0.061
	c-0.26-1.311-0.02-2.811-0.82-3.96C245.95,214.41,244.01,214.811,242.13,215.34 M239.721,218.58c-0.861,1.529-1.791,3.02-2.701,4.52
	c1.99,0.9,4.061,1.62,6.271,1.801c-0.74-2.24-1.149-4.561-1.87-6.801C241,218.22,240.15,218.46,239.721,218.58 M280.3,221.15
	c0.03,1.119,0.06,2.25,0.101,3.38c1.43,0.02,2.859,0.05,4.289,0.09c-0.049-0.61-0.14-1.84-0.189-2.45
	C283.1,221.811,281.7,221.49,280.3,221.15 M245.46,226.57c2.41,3.01,5.771,5,8.851,7.25c1.239-2.08,3.52-5.26,0.84-7.19
	c-1.5,0.67-2.95,1.431-4.42,2.15c-0.17-2.55,0.09-5.5-2.78-6.601C246.91,223.45,244.25,224.58,245.46,226.57 M257.391,223.24
	c-0.021,1.04-0.041,2.08-0.061,3.13c3.641,0.86,6.84,3.399,10.68,3.25c4.24-0.261,7.93,2.72,12.26,1.64
	c-2.39-2.46-4-5.66-6.779-7.71c-2.43-1.12-4.01,1.261-5.57,2.67c-0.17-0.78-0.5-2.35-0.66-3.14c-2.14-0.141-3.779,0.99-5.08,2.58
	C261.13,223.87,259.41,223.17,257.391,223.24 M229.67,298.48c-4.92,5.67-9.109,11.97-12.54,18.649c-1.5,2.979-4.12,5.19-5.55,8.22
	c3.141-0.02,6.23-0.629,9.37-0.64c11.26-0.069,22.21-3.29,32.64-7.271c1.25-2.66-2.42-3.719-3.9-5.189
	c-5.77-4.96-11.219-10.42-17.91-14.18C231.25,298.18,230.189,298.38,229.67,298.48z"/>
<path fill="#FFFFFF" d="M187.23,7.53c5.49-1.63,11.319-1.23,16.81-2.91c4.96-0.35,9.97-0.2,14.94-0.06
	c6.439,1.89,13.279,0.22,19.74,2.15c7.319,2.35,14.969,3.7,21.949,7.03c5.67,1.4,10.891,4.06,16.04,6.74
	c6.521,3.86,13.75,6.4,19.89,10.9c9.91,4.58,18.271,11.68,27.271,17.73c6.97,6.2,12.39,13.9,17.41,21.71
	c12.58,18.38,18.649,40.34,21.97,62.12c-0.12,10.1,0.7,20.29-0.73,30.32c-0.229,6.92-2.489,13.53-3.34,20.36
	c-3.09,15.41-3.989,31.79-12.08,45.66c-4.439,6.35-9.14,12.649-15.05,17.739c-5.91,5.211-11.47,11.221-18.91,14.24
	c-4.239,1.74-8.409,3.631-12.53,5.62c-1.889-6.67-5.959-12.41-7.83-19.069c-0.379-4.301-1.149-9.121,2.041-12.591
	c-0.83-1.7-1.631-3.42-2.461-5.12c0.681-1.63,3.19-3.22,1.49-4.99c-2.289-2.129-2.779,1.631-3.689,3.08
	c-1.48-0.859-2.689-2.069-3.93-3.229c2.789-3.44,3.51-7.95,6.08-11.521c1.469-3.159,2.33-6.629,2.35-10.119
	c-2.62-2.41-5.99-3.711-9.311-4.811c0.23-1,0.461-2,0.7-2.99c-3.92,0.23-7.829-2.129-11.69-0.629
	c-2.959,1.379-6.399,1.229-9.239,2.89c-5.101,2.86-9.729,6.579-13.53,11.01c-2.98,1.37-6.08,2.81-9.38,3.18
	c-0.14-3.229,0.261-6.649,2.851-8.899c3.64-3.381,6.239-7.78,10.359-10.641c2.42-1.869,4.109-4.539,6.76-6.13
	c2.51-1.58,4.92-3.34,7.041-5.43c-2.121-0.67-4.171-1.52-6.23-2.34c-6.631-0.61-12.61,3-18.98,4.25c-2.77,0.25-4,2.84-5.369,4.87
	c0.75-0.351,2.229-1.07,2.969-1.42c1.74,3.4,1.91,9.92-2.799,10.6c-0.121,0.51-0.36,1.529-0.48,2.04c1.09-0.601,2.17-1.2,3.27-1.8
	c1.91,2.8,0.07,5.899-0.72,8.729c-3.08,9.3-5.409,19.11-11.3,27.14c2.811-1.909,5.12-4.449,6.58-7.539
	c7.689,1.42,13.6,6.85,20.09,10.8c0.279-2.511,1.42-4.78,2.46-7.04c2.63,0.24,4.649,1.88,6.271,3.85c1.379-0.67,2.76-1.34,4.17-1.97
	c2.14,1.43,3.16,3.66,3.629,6.13c1.141-1.859,2.41-3.67,4.181-4.99c1.8,1.381,3.44,2.95,5.021,4.58c-0.17,0.69-0.5,2.051-0.67,2.74
	c-2.33-0.02-4.65,0.02-6.971,0.02c0.08,0.471,0.23,1.431,0.301,1.9c2.279-0.24,4.549-0.58,6.789-1.061
	c3.58-2.819-1.9-7.709,1.09-10.859c0.461-1.23,2.08-1.13,3.101-0.83c2.11,1.04,4.3,2.34,5.56,4.4c0.391,3.92,0.74,7.89,0.33,11.82
	c-1.359,3.5-3.81,6.619-7.13,8.43c-3.38,0.67-6.88,0.359-10.29,0.18c-7.119-1.63-14.38-3.15-20.91-6.561
	c-4.289-2.569-7.88-6.14-12.17-8.709c2.54,4.39,6.891,7.229,10.551,10.6c-4.311,0.73-7.07-3.221-11.011-4.1
	c-3.96-1.65-7.569,1.039-11.11,2.42c-0.029,3.09-1.459,5.91-2.609,8.709c-0.721,1.881-3.08,1.951-4.63,2.801
	c-0.479-8.221,6.19-13.92,9.6-20.69c-1.78,0.79-2.75,2.48-3.79,4.021c-6.199,7.93-8.75,17.97-10.57,27.66
	c0.281-0.01,0.84-0.041,1.121-0.051c3.42-5.069,6.58-10.709,11.75-14.18c0.33-1.779,0.17-3.609,0.209-5.4
	c1.951,0.48,3.931,2.381,5.98,1.271c3.73-1.649,8.09-1.22,11.79,0.31c2.7,1.2,5.819,0.221,8.489,1.521
	c8.201,3.36,17.141,5.54,26.011,3.989c3.181-1.219,5.26-4.149,8.03-6.039c1.479,6.14,4.41,11.97,4.83,18.33
	c-12.17,6.77-25.69,11.3-39.65,12.01c-7.33,0.05-14.68,0.25-22-0.311c-6.58-0.939-13.33,0.211-19.85-1.26
	c-8.391-1.109-16.86-1.82-25.101-3.79c3.66-3.68,7.36-7.319,11-11.01c2.47-2.47,5.89-3.97,7.78-7.01
	c2.689-4.69,4.949-9.66,6.37-14.88c-4.04,4.149-5.74,10.08-10.38,13.67c-2.82,2.64-4.721,6.83-9.221,6.539
	c-0.09,0.971-0.18,1.94-0.25,2.921c-1.26,0.12-2.51,0.25-3.76,0.37c-0.029,0.75-0.07,2.25-0.09,3c-1.51-0.76-3.1-1.32-4.75-1.69
	c-0.73,2.42,1.74,3.33,3.26,4.55c-4.58-0.109-9.41,2.311-13.73-0.02c-5.95-2.79-12.42-4.17-18.47-6.66
	c-8.51-4.68-17.2-9.09-25.31-14.471c-4.52-3.1-9.66-5.67-12.66-10.449c-4.23-1.141-8.25-3.19-11.3-6.391
	c-8.55-10.81-13.59-24.01-16.02-37.489c-1-10.76-3.75-21.271-4.99-31.99c-0.23-12.01-0.12-24.02-0.08-36.03
	c-0.17-4,1.58-7.67,2.66-11.42c2.87-12.56,5.47-25.3,10.69-37.14c3.36-7.52,5.42-15.54,8.77-23.07c2.11-4.86,3.63-10.42,7.97-13.83
	c5.16-4.19,10.06-8.67,15.35-12.69c3.6-3.16,8.19-4.96,11.59-8.37c1.75-1.53,3.6-3.24,5.91-3.81c9.6-0.69,18.8-4.23,27.16-8.84
	C179.9,8.27,183.72,8.52,187.23,7.53 M200.6,29.17c2.621,0.85,6.24,2.59,7.92-0.69c-1.729-0.12-3.459-0.21-5.189-0.27
	c-0.43-2.74,0.93-5.05,2.54-7.12c-0.21-0.71-0.61-2.14-0.82-2.85C202.08,21.01,200.09,25.05,200.6,29.17 M252.279,21.06
	c2.861,5.76,6.07,11.41,7.811,17.65c1.37,4.93,4.1,9.38,5.29,14.36c0.511,5.51,2.07,11.58,6.56,15.2
	c-0.16-3.74-3.289-6.51-3.39-10.25c-0.239-2.69-1.17-5.28-1.021-8.01c0.371-6.68-3.699-12.38-5.689-18.5
	C260.38,26.94,257.12,22.26,252.279,21.06 M272.95,22.06c-0.421,3.29-3.82,7.03-1.171,10C273.32,29.11,276.33,24.84,272.95,22.06
	 M275.57,29.39c0.029,2.37-0.811,5.17,0.789,7.19c0.541-3.27,1.561-6.41,2.58-9.56C277.609,27.31,275.52,27.6,275.57,29.39
	 M236.15,38.09c1.729,1.9,3.82,3.41,6.029,4.69c4.641,2.61,7.541,7.2,10.83,11.21c2.49,2.979,3.61,6.87,6.33,9.67
	c4.25,5.02,10.99,8.52,12.5,15.39c0.811,3.87-3.63,5.56-4.779,8.8c2.27-1.03,4.17-2.67,6.1-4.22c2.71,2.39,5.63,4.56,8.96,6.03
	c3.75,1.64,6.3,4.99,8.55,8.26c-2.4,2-3.449,4.82-4.21,7.74c1.13-0.09,2.261-0.19,3.39-0.28c0.15,3.53-0.82,7.08-0.039,10.58
	c0.379-0.68,1.149-2.05,1.529-2.73c0.24-5.17,0.28-10.37,0.24-15.55c1.1-0.18,2.199-0.36,3.3-0.55c0.86-3.07,2.86-5.81,6.21-6.31
	c5.29-0.51,10.67-0.38,15.9,0.62c7.37,0.53,12.479,6.61,16.779,11.97c-1.64-6.68-8.159-10.14-13.829-12.97
	c-4.061-2.51-8.98-1.99-13.54-2.15c-0.051-0.49-0.15-1.46-0.2-1.94c2.52-2.44,4.71-5.68,4.2-9.36c-2.131,2.28-3.341,5.86-6.771,6.39
	c-3.68,1.04-6.76,3.69-10.67,4.01c-2.649,0.26-5.181,1.17-7.819,1.45c-2.101-0.15-3.871-1.54-5.381-2.88
	c-2.77-4.72-0.8-10.48,0.93-15.22c3.971-5.07,8.83-9.34,14.17-12.92c3.17-3.07,7.021-5.36,11.41-6.14
	c-5.709-2.56-11.5,1.12-15.289,5.3c-3.711,4.24-8.15,7.84-11.451,12.43c-2.459,3.26-2.319,7.51-3.049,11.35
	c-0.44-0.06-1.311-0.17-1.75-0.22c-0.11-5.02-4.33-8.35-7.44-11.77c-6.771-4.77-9.74-12.85-15.181-18.84
	C248.33,44.33,242.84,39.67,236.15,38.09 M276.109,49.71c1.41-1.22,2.811-2.47,4.08-3.85c0.141-1.79-0.83-3.46-1.129-5.2
	c3.01,1.87,6.09,3.7,9.469,4.85c1.941,0.53,3.361-1.16,4.851-2.08c-5.59,0.96-10.56-2.05-14.569-5.61
	C277.33,41.63,276.79,45.7,276.109,49.71 M282.55,46.5c-2.21,2.65-6.14,4.55-6.21,8.39c2.76-0.87,4.17-3.57,5.9-5.67
	c2.82,0.04,5.64,0.22,8.46,0C288.609,46.9,285.25,47.55,282.55,46.5 M230.391,61.81c2.959,6.03,7.529,11.03,10.949,16.78
	c2.32,3.64,5.41,6.77,7.29,10.68c4.55-2.21,9.96-1.49,14.29-4.2c-4.82-2.89-9.74-5.63-14.52-8.59
	C241.74,72.43,236.529,66.53,230.391,61.81 M204.26,66.77c2.461,2.7,6.391,0.93,9.561,1.63c10.89,2.35,19.689,10.18,25.67,19.3
	c1.33,1.62,0.93,3.81,1.17,5.75c0.5,0.06,1.52,0.19,2.029,0.25c-2.879-12.8-12.869-23.94-25.67-27.24
	C212.77,66.14,208.48,66.19,204.26,66.77 M274.109,71.45c-0.909,1.15-0.629,1.83,0.811,2.02
	C275.82,72.29,275.55,71.62,274.109,71.45 M202.33,80.32c-3.939,1.94-7.2,6.04-6.859,10.61c-0.211,4.36,0.649,9.32,4.489,11.98
	c3.83,2.53,8.05,4.42,12.21,6.33c3.971,0.94,8.561,0.51,11.57-2.55c-1.811-0.13-3.61-0.15-5.41-0.18
	c-0.801-1.24-1.63-2.45-2.46-3.66c-0.14,1.02-0.431,3.07-0.58,4.1c-1.31-0.18-2.5-0.64-3.569-1.38
	c-5.771,0.92-11.561-2.84-14.291-7.76c-0.6-4.59,0.4-9.47,3.211-13.19c2.85-2.33,6.149-4.14,9.739-5.01
	c3.72-0.41,7.47,0.37,11.181-0.26c-0.621-0.37-1.871-1.1-2.49-1.47C213.46,77.25,207.3,77.29,202.33,80.32 M206.91,88.15
	c-1.939,4.58,0.52,9.83,4.779,12.06c5.65,1.34,11.201-4.74,9.871-10.29c-3.351-1.26-4.531-6.12-8.561-5.53
	C210.37,84.07,208.4,86.3,206.91,88.15 M250.18,90.24c-1.959,2.13,0.59,5.51-1.33,7.79c-4.399,7.21-11.34,13.08-19.49,15.58
	c-3.92,1.72-8.289,0.58-12.42,0.85c-6.629,0.16-12.819-3.03-19.34-3.02c3.68,3.07,7.91,6.68,13.021,6.31
	c3.59-0.2,7.29,0.33,10.75-0.84c3.03-0.97,6.38-0.04,9.31-1.4c3.561-1.53,7.18-3.07,10.23-5.5c2.49-2.14,5.74-3,8.79-4.04
	c-0.07-1.31-0.14-2.62-0.21-3.93c2.609,1.39,5.51,1.46,8.39,1.43c0.11,0.39,0.32,1.19,0.42,1.58c-0.17,1.25-1.09,2.11-1.909,2.96
	c3.17,1.65,5.5,4.33,7.76,7.01c0.32-4.01-3.721-6.3-4.291-9.82l0.521-0.54c4.95,0.44,9.41,2.75,13.83,4.83
	c3.229,1.54,3.05,5.6,3.54,8.63c0.51,0.19,1.529,0.57,2.04,0.75c-1.06-2.69-2.91-6.77,0.62-8.38c0.04,1.07,0.119,3.229,0.15,4.31
	c0.26-0.06,0.779-0.18,1.039-0.24c0.23-3.19-0.869-6.13-2.22-8.94c-0.58-0.13-1.729-0.38-2.3-0.51c0.67,1.66,1.37,3.3,1.97,4.99
	c-2.399,2.06-3.81-1.36-5.51-2.57c-4.96-3.64-11.33-4.33-16.95-6.54c1.5-0.57,3.02-1.1,4.561-1.58c-0.25-0.39-0.74-1.16-0.98-1.55
	c-2.27-0.48-4.52-1.06-6.74-1.72c3.95-3.97,10.23-2.26,15.28-2.66c-0.08-0.46-0.25-1.39-0.33-1.85c-4.28-2.21-8.87,0.42-13.38,0.07
	C253.221,91.94,251.93,89.84,250.18,90.24 M277.189,93.84c0.041,0.73,0.131,2.19,0.181,2.91c1.61,0.53,3.229,0.77,4.51-0.62
	C280.32,95.35,278.76,94.59,277.189,93.84 M306.35,97.33c-4.66,1.8-10.59,4.11-11.629,9.64c-0.98,5.21,2.67,9.76,6.27,13.061
	c4.52,3.689,9.84,7.479,16.029,6.62c4.521,0.58,8.061-2.69,11.36-5.27c3.521-2.8,3.21-7.75,2.98-11.78
	c-1.061-5.37-5.54-9.12-9.83-12.08c-1.271-1.09-2.971-0.96-4.521-1C313.45,96.5,309.8,96.23,306.35,97.33 M228.26,101.55
	c-0.699,2.35,0.75,3.75,3,3.08c0.221-0.76,0.641-2.27,0.86-3.02C231.15,101.59,229.221,101.56,228.26,101.55 M193.1,111.19
	c1.51,2.64,3.791,4.67,5.98,6.73c0.699-0.17,2.109-0.5,2.82-0.66C199.05,115.12,196.18,112.99,193.1,111.19 M295.971,131.06
	c1.77,3.55,1.59,8.55,5.67,10.48c0.139-5.45-3.98-9.89-3.33-15.34c-2.621-3.54-4.461-7.53-6.65-11.33
	C290.41,120.63,293.51,126.07,295.971,131.06 M230.79,128.47c-1.979,0.22-4.21-0.38-5.81,1.17c-1.73-0.89-4.01-2.16-5.791-0.65
	c-1.58,0.94-2.879,3.04-4.959,2.53c-1.881-0.31-3.66-1.07-5.541-1.41c1.16,2.26,3.121,4.2,5.721,4.56
	c2.97,0.28,5.85-0.74,8.779-1.04c6.061-0.43,11.69-3.48,16.25-7.37c3.101-2.49,6.67-4.65,8.601-8.28
	C242.55,121.9,236.55,124.98,230.79,128.47 M296.359,119.53c-0.459,1.66,0.111,2.22,1.711,1.7
	C298.54,119.6,297.971,119.04,296.359,119.53 M191.95,129.13c2.42,1.2,5.13,0.34,7.51-0.51c0.021-0.66,0.06-1.99,0.08-2.65
	c-1.851,0.311-3.63,1.61-5.511,1.26c-1.199-1.28-1.719-2.98-2.35-4.57C190.2,124.41,189.96,127.67,191.95,129.13 M247.939,130.17
	c0.951,3.3,3.051,6.06,4.61,9.06c-0.46,3.56-4.479,6.13-4.28,9.97c0.201,3.51-0.699,6.93-0.89,10.41
	c-1.7,5.15-4.319,10.01-5.409,15.37c-0.381,1.84-1.191,4.59,1.25,5.42c0.189-1.65,0.319-3.31,0.42-4.98
	c1.25,0.72,2.59,1.27,3.969,1.7c0.061-0.81,0.19-2.44,0.25-3.25c-0.67-0.17-2.029-0.49-2.709-0.66c0.66-4.59,2.42-9.17,5.66-12.57
	c2.729,0.22,5.459,0.13,8.199,0.08c3.4,1.58,6.971,2.86,10.07,5.03c0.93-0.4,1.859-0.81,2.79-1.23c1.2,2.13,2.44,4.23,3.479,6.44
	c0.601,0.15,1.811,0.44,2.41,0.58c-0.199-2,0.32-4.36-1.17-5.99c-2.939-3.66-7.18-6.23-11.63-7.63c-4.06-1.4-8.59,2.27-12.319-0.56
	c-2.801-1.31-0.541-4.23,0.06-6.2c-0.46-1.4-0.931-2.8-1.4-4.19c2.38,1.75,4.86,3.59,7.95,3.63c-1.25-2.14-2.63-4.21-3.82-6.38
	c3.09,0.061,5.09,2.66,6.641,5.01c0.949-1.33,1.93-2.63,2.869-3.97c1.521,1.37,3.031,2.75,4.531,4.15
	c-0.051-0.83-0.141-2.49-0.181-3.32c1.979,0.49,3.91,1.15,5.87,1.74c0.93,2.98,2.189,6.15,5.59,6.93
	c-0.15-1.92-0.221-3.84-0.49-5.74c-2.529-4.08-7.279-5.62-10.369-9.13c-0.67,1.06-1.33,2.12-2,3.18c-0.19-0.53-0.561-1.59-0.75-2.12
	c0.689-0.63,1.389-1.26,2.09-1.88c-2.15-1.54-4.291-3.11-6.521-4.53c-0.08,1.44-0.14,2.88-0.19,4.33c-3.31-0.91-6.24-2.66-7.41-6.09
	C252.41,132.88,250.2,131.41,247.939,130.17 M302.41,142.33c-0.391,3.08,0.199,6.1,1.449,8.92c1.65,2.98-1.81,6.67,1.291,9.1
	c0.51-2.1,0.939-4.21,1.399-6.32c0.71,0.14,2.141,0.41,2.86,0.55c0.439,5.55-0.3,11.55-3.57,16.19c-2.939,2.84-6.26,6.35-10.75,5.8
	c-6.01,0.82-11.59-1.69-16.72-4.5c-2.03-0.29-1.72,2.14-0.649,3.1c-1.611-1.08-3.291-2.15-5.32-1.65
	c1.529,1.65,3.279,3.08,5.08,4.43c-0.09,2.28-0.25,4.57-0.33,6.86c-3.041-0.14-6.09-0.47-9.121-0.1
	c-2.619,1.17-4.42,3.64-6.049,5.92c3.14-1.8,6.1-4.68,10.02-4.12c4.21-0.51,7.68,2.28,11.16,4.18c2.939,1.801,6.65,0.061,9.68,1.261
	c2.2,2.12,4.52,4.18,6.381,6.61c0.149,4.33,1.689,8.56,1.369,12.899c-3.15,3.33-5.08,7.61-8.48,10.729
	c0.721,0.971,1.631,1.69,2.74,2.15c2.01-0.25,2.971-2.81,4.53-4.01c0.22,2.71-0.19,5.57,0.899,8.15
	c0.25-1.971,0.351-3.94,0.541-5.91c0.99,0.66,1.97,1.34,2.93,2.06c-0.471-2.56,0.01-5.09,0.51-7.6
	c-0.84-3.62-0.58-7.311-0.609-10.98c-0.82-4.159,1.99-7.68,3.71-11.2c-3.511-1.789-6.751-4.039-9.44-6.939
	c-0.82,0.91-1.609,1.84-2.391,2.779c-3.51-1.64-7.389-0.739-11.079-1.27c-1.761-1.02-3.39-2.24-5.04-3.4
	c0.869-1.17,1.75-2.34,2.619-3.52c2.061-0.08,4.201-0.52,6.221,0.13c3.17,1.29,5.63,3.75,8.07,6.06
	c0.029-0.939,0.08-2.819,0.109-3.759c1.24,0.56,2.49,1.13,3.74,1.7c2.5-2.71,3.2-6.3,3.95-9.77c1.97-3.67,5.82-6.51,6.3-10.94
	c0.18-3.64-0.01-7.29-0.12-10.93C309.75,149.79,306.22,145.62,302.41,142.33 M284.87,145.36c-1.2,0.93,0.2,3.24,1.55,2.34
	C287.561,146.74,286.26,144.42,284.87,145.36 M287.15,153.84c2.1-0.57,4.17-1.27,6.26-1.9c0,2.23,0.01,4.46,0.02,6.69
	c0.6,0.01,1.801,0.03,2.4,0.03c-0.24-2.66-0.971-5.22-1.471-7.83c-1,0.46-2.01,0.89-3.039,1.27c0.18-0.99,0.539-2.98,0.72-3.98
	c0.739-0.36,2.229-1.08,2.97-1.43C290.8,146.46,287.85,149.96,287.15,153.84 M281.48,145.9c-0.311,2.89,0.47,6.06,3.35,7.32
	C284.62,150.51,284.05,147.39,281.48,145.9 M300.1,151.34c-1.05,1.08-0.77,3.96,0.33,5.11C302.34,155.81,301.15,152.46,300.1,151.34
	 M170.1,173.53c0.21,0.85,0.43,1.71,0.65,2.56c0.46,0.16,1.4,0.49,1.87,0.65c0.01-1.07,0.03-2.13,0.04-3.19
	C172.02,173.55,170.74,173.54,170.1,173.53 M140.81,178.34c0.48,1.72,1.09,3.41,1.86,5.03c0.86-0.02,1.72-0.05,2.58-0.07
	c0.56-0.88,1.13-1.76,1.7-2.63C144.62,180.74,142.58,179.76,140.81,178.34 M195.37,183.18c1.08,1.98,2.21,3.95,3.101,6.04
	c2.079-1.17,4.859-3.32,2.949-5.86c-0.65,0.92-1.939,2.75-2.59,3.66C197.62,185.78,196.52,184.46,195.37,183.18 M255.01,195.98
	c-1.109,1.319-1.529,3.039-2.14,4.619c2.069-1.52,4.25-2.869,6.42-4.22c0.08-0.521,0.229-1.56,0.31-2.08
	C258.01,194.66,256.38,195.07,255.01,195.98 M169.5,213.5c-0.03,1.7,0.31,3.38,0.83,5c1.37-0.05,2.75-0.1,4.12-0.141
	c0.13-0.459,0.39-1.379,0.53-1.85C172.58,216.77,171.07,214.99,169.5,213.5z"/>
<path fill="#090909" d="M200.6,29.17c-0.51-4.12,1.48-8.16,4.45-10.93c0.21,0.71,0.61,2.14,0.82,2.85
	c-1.61,2.07-2.97,4.38-2.54,7.12c1.73,0.06,3.46,0.15,5.189,0.27C206.84,31.76,203.221,30.02,200.6,29.17z"/>
<path fill="#090909" d="M252.279,21.06c4.841,1.2,8.101,5.88,9.561,10.45c1.99,6.12,6.061,11.82,5.689,18.5
	c-0.149,2.73,0.781,5.32,1.021,8.01c0.101,3.74,3.229,6.51,3.39,10.25c-4.489-3.62-6.049-9.69-6.56-15.2
	c-1.19-4.98-3.92-9.43-5.29-14.36C258.35,32.47,255.141,26.82,252.279,21.06z"/>
<path fill="#090909" d="M272.95,22.06c3.38,2.78,0.37,7.05-1.171,10C269.13,29.09,272.529,25.35,272.95,22.06z"/>
<path fill="#090909" d="M275.57,29.39c-0.051-1.79,2.039-2.08,3.369-2.37c-1.02,3.15-2.039,6.29-2.58,9.56
	C274.76,34.56,275.6,31.76,275.57,29.39z"/>
<path fill="#090909" d="M236.15,38.09c6.689,1.58,12.18,6.24,15.959,11.84c5.44,5.99,8.41,14.07,15.181,18.84
	c3.11,3.42,7.33,6.75,7.44,11.77c0.439,0.05,1.31,0.16,1.75,0.22c0.729-3.84,0.59-8.09,3.049-11.35
	c3.301-4.59,7.74-8.19,11.451-12.43c3.789-4.18,9.58-7.86,15.289-5.3c-4.39,0.78-8.24,3.07-11.41,6.14
	c-5.34,3.58-10.199,7.85-14.17,12.92c-1.729,4.74-3.699,10.5-0.93,15.22c1.51,1.34,3.28,2.73,5.381,2.88
	c2.639-0.28,5.17-1.19,7.819-1.45c3.91-0.32,6.99-2.97,10.67-4.01c3.43-0.53,4.64-4.11,6.771-6.39c0.51,3.68-1.681,6.92-4.2,9.36
	c0.05,0.48,0.149,1.45,0.2,1.94c4.56,0.16,9.479-0.36,13.54,2.15c5.67,2.83,12.189,6.29,13.829,12.97
	c-4.3-5.36-9.409-11.44-16.779-11.97c-5.23-1-10.61-1.13-15.9-0.62c-3.35,0.5-5.35,3.24-6.21,6.31c-1.101,0.19-2.2,0.37-3.3,0.55
	c0.04,5.18,0,10.38-0.24,15.55c-0.38,0.68-1.15,2.05-1.529,2.73c-0.781-3.5,0.189-7.05,0.039-10.58c-1.129,0.09-2.26,0.19-3.39,0.28
	c0.761-2.92,1.81-5.74,4.21-7.74c-2.25-3.27-4.8-6.62-8.55-8.26c-3.33-1.47-6.25-3.64-8.96-6.03c-1.93,1.55-3.83,3.19-6.1,4.22
	c1.149-3.24,5.59-4.93,4.779-8.8c-1.51-6.87-8.25-10.37-12.5-15.39c-2.72-2.8-3.84-6.69-6.33-9.67
	c-3.289-4.01-6.189-8.6-10.83-11.21C239.971,41.5,237.88,39.99,236.15,38.09z"/>
<path fill="#090909" d="M276.109,49.71c0.681-4.01,1.221-8.08,2.701-11.89c4.01,3.56,8.979,6.57,14.569,5.61
	c-1.489,0.92-2.909,2.61-4.851,2.08c-3.379-1.15-6.459-2.979-9.469-4.85c0.299,1.74,1.27,3.41,1.129,5.2
	C278.92,47.24,277.52,48.49,276.109,49.71z"/>
<path fill="#090909" d="M282.55,46.5c2.7,1.05,6.06,0.4,8.15,2.72c-2.82,0.22-5.64,0.04-8.46,0c-1.73,2.1-3.141,4.8-5.9,5.67
	C276.41,51.05,280.34,49.15,282.55,46.5z"/>
<path fill="#090909" d="M230.391,61.81c6.139,4.72,11.35,10.62,18.01,14.67c4.779,2.96,9.699,5.7,14.52,8.59
	c-4.33,2.71-9.74,1.99-14.29,4.2c-1.88-3.91-4.97-7.04-7.29-10.68C237.92,72.84,233.35,67.84,230.391,61.81z"/>
<path fill="#090909" d="M204.26,66.77c4.221-0.58,8.51-0.63,12.76-0.31c12.801,3.3,22.791,14.44,25.67,27.24
	c-0.51-0.06-1.529-0.19-2.029-0.25c-0.24-1.94,0.16-4.13-1.17-5.75c-5.98-9.12-14.78-16.95-25.67-19.3
	C210.65,67.7,206.721,69.47,204.26,66.77z"/>
<path fill="#090909" d="M274.109,71.45c1.44,0.17,1.711,0.84,0.811,2.02C273.48,73.28,273.2,72.6,274.109,71.45z"/>
<path fill="#090909" d="M202.33,80.32c4.97-3.03,11.13-3.07,16.74-2.44c0.619,0.37,1.869,1.1,2.49,1.47
	c-3.711,0.63-7.461-0.15-11.181,0.26c-3.59,0.87-6.89,2.68-9.739,5.01c-2.811,3.72-3.811,8.6-3.211,13.19
	c2.73,4.92,8.521,8.68,14.291,7.76c1.069,0.74,2.26,1.2,3.569,1.38c0.149-1.03,0.44-3.08,0.58-4.1c0.83,1.21,1.659,2.42,2.46,3.66
	c1.8,0.03,3.6,0.05,5.41,0.18c-3.01,3.06-7.6,3.49-11.57,2.55c-4.16-1.91-8.38-3.8-12.21-6.33c-3.84-2.66-4.7-7.62-4.489-11.98
	C195.13,86.36,198.391,82.26,202.33,80.32z"/>
<path fill="#090909" d="M206.91,88.15c1.49-1.85,3.46-4.08,6.09-3.76c4.029-0.59,5.21,4.27,8.561,5.53
	c1.33,5.55-4.221,11.63-9.871,10.29C207.43,97.98,204.971,92.73,206.91,88.15z"/>
<path fill="#090909" d="M250.18,90.24c1.75-0.4,3.041,1.7,4.82,1.46c4.51,0.35,9.1-2.28,13.38-0.07c0.08,0.46,0.25,1.39,0.33,1.85
	c-5.05,0.4-11.33-1.31-15.28,2.66c2.221,0.66,4.471,1.24,6.74,1.72c0.24,0.39,0.73,1.16,0.98,1.55
	c-1.541,0.48-3.061,1.01-4.561,1.58c5.62,2.21,11.99,2.9,16.95,6.54c1.7,1.21,3.11,4.63,5.51,2.57c-0.6-1.69-1.3-3.33-1.97-4.99
	c0.57,0.13,1.72,0.38,2.3,0.51c1.351,2.81,2.45,5.75,2.22,8.94c-0.26,0.06-0.779,0.18-1.039,0.24c-0.031-1.08-0.11-3.24-0.15-4.31
	c-3.53,1.61-1.68,5.69-0.62,8.38c-0.511-0.18-1.53-0.56-2.04-0.75c-0.49-3.03-0.311-7.09-3.54-8.63c-4.42-2.08-8.88-4.39-13.83-4.83
	l-0.521,0.54c0.57,3.52,4.611,5.81,4.291,9.82c-2.26-2.68-4.59-5.36-7.76-7.01c0.819-0.85,1.739-1.71,1.909-2.96
	c-0.1-0.39-0.31-1.19-0.42-1.58c-2.88,0.03-5.78-0.04-8.39-1.43c0.07,1.31,0.14,2.62,0.21,3.93c-3.05,1.04-6.3,1.9-8.79,4.04
	c-3.051,2.43-6.67,3.97-10.23,5.5c-2.93,1.36-6.279,0.43-9.31,1.4c-3.46,1.17-7.16,0.64-10.75,0.84
	c-5.11,0.37-9.341-3.24-13.021-6.31c6.521-0.01,12.711,3.18,19.34,3.02c4.131-0.27,8.5,0.87,12.42-0.85
	c8.15-2.5,15.091-8.37,19.49-15.58C250.77,95.75,248.221,92.37,250.18,90.24z"/>
<path fill="#090909" d="M277.189,93.84c1.57,0.75,3.131,1.51,4.69,2.29c-1.28,1.39-2.899,1.15-4.51,0.62
	C277.32,96.03,277.23,94.57,277.189,93.84z"/>
<path fill="#090909" d="M306.35,97.33c3.45-1.1,7.101-0.83,10.66-0.81c1.55,0.04,3.25-0.09,4.521,1c4.29,2.96,8.77,6.71,9.83,12.08
	c0.229,4.03,0.54,8.98-2.98,11.78c-3.3,2.58-6.84,5.85-11.36,5.27c-6.189,0.86-11.51-2.93-16.029-6.62
	c-3.6-3.3-7.25-7.85-6.27-13.061C295.76,101.44,301.689,99.13,306.35,97.33 M304.79,103.78c-1.59-0.28-3.11-1.74-4.75-1.16
	c-1.84,1.41-2.61,3.64-3.36,5.74c-0.89,2.14,1.44,3.72,2.78,4.98c0.2-1.76,0.33-3.51,0.45-5.27c0.29,2.29,1.779,3.91,3.57,5.22
	c-1.66,0.75-3.28,1.59-4.84,2.53c1.68,2.36,3.92,4.22,6.33,5.8c0.479-0.54,1.449-1.63,1.93-2.18c0.359,1.87,0.96,3.67,1.79,5.38
	c3.02-0.34,5.43-2.3,7.859-3.94c-0.939,1.56-1.84,3.14-2.64,4.77c2.74-0.03,5.83,0.64,8.16-1.23c4.06-2.52,9.439-5.83,8.449-11.42
	c0.641-4.25-1.8-7.99-4.899-10.63c-4.04-4.17-10.29-4.26-15.69-3.8C307.24,98.92,302.93,100.18,304.79,103.78z"/>
<path fill="#FFFFFF" d="M304.79,103.78c-1.86-3.6,2.45-4.86,5.14-5.21c5.4-0.46,11.65-0.37,15.69,3.8
	c3.1,2.64,5.54,6.38,4.899,10.63c0.99,5.59-4.39,8.9-8.449,11.42c-2.33,1.87-5.42,1.2-8.16,1.23c0.8-1.63,1.7-3.21,2.64-4.77
	c-2.43,1.64-4.84,3.6-7.859,3.94c-0.83-1.71-1.431-3.51-1.79-5.38c-0.48,0.55-1.45,1.64-1.93,2.18c-2.41-1.58-4.65-3.44-6.33-5.8
	c1.56-0.94,3.18-1.78,4.84-2.53c-1.791-1.31-3.28-2.93-3.57-5.22c-0.12,1.76-0.25,3.51-0.45,5.27c-1.34-1.26-3.67-2.84-2.78-4.98
	c0.75-2.1,1.521-4.33,3.36-5.74C301.68,102.04,303.2,103.5,304.79,103.78 M314.46,105.52c-2.84,1.96-4.9,5.82-3.64,9.26
	c1.58,5.51,9.529,5.96,13.22,2.33c1.04-1.6,1.74-3.39,2.43-5.16C325.25,106.61,319.53,103.87,314.46,105.52z"/>
<path fill="#090909" d="M228.26,101.55c0.961,0.01,2.891,0.04,3.86,0.06c-0.22,0.75-0.64,2.26-0.86,3.02
	C229.01,105.3,227.561,103.9,228.26,101.55z"/>
<path fill="#090909" d="M314.46,105.52c5.07-1.65,10.79,1.09,12.01,6.43c-0.689,1.77-1.39,3.56-2.43,5.16
	c-3.69,3.63-11.64,3.18-13.22-2.33C309.56,111.34,311.62,107.48,314.46,105.52z"/>
<path fill="#090909" d="M193.1,111.19c3.08,1.8,5.95,3.93,8.801,6.07c-0.711,0.16-2.121,0.49-2.82,0.66
	C196.891,115.86,194.609,113.83,193.1,111.19z"/>
<path fill="#090909" d="M295.971,131.06c-2.461-4.99-5.561-10.43-4.311-16.19c2.189,3.8,4.029,7.79,6.65,11.33
	c-0.65,5.45,3.469,9.89,3.33,15.34C297.561,139.61,297.74,134.61,295.971,131.06z"/>
<path fill="#090909" d="M230.79,128.47c5.76-3.49,11.76-6.57,17.25-10.49c-1.931,3.63-5.5,5.79-8.601,8.28
	c-4.56,3.89-10.189,6.94-16.25,7.37c-2.93,0.3-5.81,1.32-8.779,1.04c-2.6-0.36-4.561-2.3-5.721-4.56c1.881,0.34,3.66,1.1,5.541,1.41
	c2.08,0.51,3.379-1.59,4.959-2.53c1.781-1.51,4.061-0.24,5.791,0.65C226.58,128.09,228.811,128.69,230.79,128.47z"/>
<path fill="#090909" d="M296.359,119.53c1.611-0.49,2.181,0.07,1.711,1.7C296.471,121.75,295.9,121.19,296.359,119.53z"/>
<path fill="#090909" d="M191.95,129.13c-1.99-1.46-1.75-4.72-0.271-6.47c0.631,1.59,1.15,3.29,2.35,4.57
	c1.881,0.35,3.66-0.95,5.511-1.26c-0.021,0.66-0.06,1.99-0.08,2.65C197.08,129.47,194.37,130.33,191.95,129.13z"/>
<path fill="#090909" d="M247.939,130.17c2.261,1.24,4.471,2.71,7.17,2.61c1.17,3.43,4.101,5.18,7.41,6.09
	c0.051-1.45,0.11-2.89,0.19-4.33c2.229,1.42,4.37,2.99,6.521,4.53c-0.701,0.62-1.4,1.25-2.09,1.88c0.189,0.53,0.56,1.59,0.75,2.12
	c0.67-1.06,1.33-2.12,2-3.18c3.09,3.51,7.84,5.05,10.369,9.13c0.27,1.9,0.34,3.82,0.49,5.74c-3.4-0.78-4.66-3.95-5.59-6.93
	c-1.96-0.59-3.891-1.25-5.87-1.74c0.04,0.83,0.13,2.49,0.181,3.32c-1.5-1.4-3.011-2.78-4.531-4.15c-0.939,1.34-1.92,2.64-2.869,3.97
	c-1.551-2.35-3.551-4.95-6.641-5.01c1.19,2.17,2.57,4.24,3.82,6.38c-3.09-0.04-5.57-1.88-7.95-3.63c0.47,1.39,0.94,2.79,1.4,4.19
	c-0.601,1.97-2.86,4.89-0.06,6.2c3.729,2.83,8.26-0.84,12.319,0.56c4.45,1.4,8.69,3.97,11.63,7.63c1.49,1.63,0.971,3.99,1.17,5.99
	c-0.6-0.14-1.81-0.43-2.41-0.58c-1.039-2.21-2.279-4.31-3.479-6.44c-0.931,0.42-1.86,0.83-2.79,1.23c-3.1-2.17-6.67-3.45-10.07-5.03
	c-2.74,0.05-5.47,0.14-8.199-0.08c-3.24,3.4-5,7.98-5.66,12.57c0.68,0.17,2.039,0.49,2.709,0.66c-0.06,0.81-0.189,2.44-0.25,3.25
	c-1.379-0.43-2.719-0.98-3.969-1.7c-0.101,1.67-0.23,3.33-0.42,4.98c-2.441-0.83-1.631-3.58-1.25-5.42
	c1.09-5.36,3.709-10.22,5.409-15.37c0.19-3.48,1.091-6.9,0.89-10.41c-0.199-3.84,3.82-6.41,4.28-9.97
	C250.99,136.23,248.891,133.47,247.939,130.17 M256.279,141.67c1.82,1.76,4.371,5.47,6.961,2.66c-0.58-0.69-1.74-2.06-2.32-2.75
	C259.37,141.57,257.82,141.6,256.279,141.67z"/>
<path fill="#FFFFFF" d="M256.279,141.67c1.541-0.07,3.091-0.1,4.641-0.09c0.58,0.69,1.74,2.06,2.32,2.75
	C260.65,147.14,258.1,143.43,256.279,141.67z"/>
<path fill="#090909" d="M302.41,142.33c3.81,3.29,7.34,7.46,7.89,12.66c0.11,3.64,0.3,7.29,0.12,10.93
	c-0.479,4.43-4.33,7.27-6.3,10.94c-0.75,3.47-1.45,7.06-3.95,9.77c-1.25-0.57-2.5-1.14-3.74-1.7c-0.029,0.94-0.08,2.82-0.109,3.759
	c-2.44-2.31-4.9-4.77-8.07-6.06c-2.02-0.65-4.16-0.21-6.221-0.13c-0.869,1.18-1.75,2.35-2.619,3.52c1.65,1.16,3.279,2.38,5.04,3.4
	c3.69,0.53,7.569-0.37,11.079,1.27c0.781-0.939,1.57-1.869,2.391-2.779c2.689,2.9,5.93,5.15,9.44,6.939
	c-1.72,3.521-4.53,7.041-3.71,11.2c0.029,3.67-0.23,7.36,0.609,10.98c-0.5,2.51-0.98,5.04-0.51,7.6
	c-0.96-0.72-1.939-1.399-2.93-2.06c-0.19,1.97-0.291,3.939-0.541,5.91c-1.09-2.58-0.68-5.44-0.899-8.15
	c-1.56,1.2-2.521,3.76-4.53,4.01c-1.109-0.46-2.02-1.18-2.74-2.15c3.4-3.119,5.33-7.399,8.48-10.729
	c0.32-4.34-1.22-8.569-1.369-12.899c-1.861-2.431-4.181-4.49-6.381-6.61c-3.029-1.2-6.74,0.54-9.68-1.261
	c-3.48-1.899-6.95-4.689-11.16-4.18c-3.92-0.56-6.88,2.32-10.02,4.12c1.629-2.28,3.43-4.75,6.049-5.92
	c3.031-0.37,6.08-0.04,9.121,0.1c0.08-2.29,0.24-4.58,0.33-6.86c-1.801-1.35-3.551-2.78-5.08-4.43c2.029-0.5,3.709,0.57,5.32,1.65
	c-1.07-0.96-1.381-3.39,0.649-3.1c5.13,2.81,10.71,5.32,16.72,4.5c4.49,0.55,7.811-2.96,10.75-5.8c3.271-4.64,4.01-10.64,3.57-16.19
	c-0.72-0.14-2.15-0.41-2.86-0.55c-0.46,2.11-0.89,4.22-1.399,6.32c-3.101-2.43,0.359-6.12-1.291-9.1
	C302.609,148.43,302.02,145.41,302.41,142.33z"/>
<path fill="#090909" d="M284.87,145.36c1.39-0.94,2.69,1.38,1.55,2.34C285.07,148.6,283.67,146.29,284.87,145.36z"/>
<path fill="#090909" d="M287.15,153.84c0.699-3.88,3.649-7.38,7.859-7.15c-0.74,0.35-2.23,1.07-2.97,1.43
	c-0.181,1-0.54,2.99-0.72,3.98c1.029-0.38,2.039-0.81,3.039-1.27c0.5,2.61,1.23,5.17,1.471,7.83c-0.6,0-1.801-0.02-2.4-0.03
	c-0.01-2.23-0.02-4.46-0.02-6.69C291.32,152.57,289.25,153.27,287.15,153.84z"/>
<path fill="#090909" d="M281.48,145.9c2.569,1.49,3.14,4.61,3.35,7.32C281.95,151.96,281.17,148.79,281.48,145.9z"/>
<path fill="#090909" d="M300.1,151.34c1.051,1.12,2.24,4.47,0.33,5.11C299.33,155.3,299.05,152.42,300.1,151.34z"/>
<path fill="#090909" d="M170.1,173.53c0.64,0.01,1.92,0.02,2.56,0.02c-0.01,1.06-0.03,2.12-0.04,3.19
	c-0.47-0.16-1.41-0.49-1.87-0.65C170.53,175.24,170.31,174.38,170.1,173.53z"/>
<path fill="#090909" d="M140.81,178.34c1.77,1.42,3.81,2.4,6.14,2.33c-0.57,0.87-1.14,1.75-1.7,2.63c-0.86,0.02-1.72,0.05-2.58,0.07
	C141.9,181.75,141.29,180.06,140.81,178.34z"/>
<path fill="#090909" d="M195.37,183.18c1.149,1.28,2.25,2.6,3.46,3.84c0.65-0.91,1.939-2.74,2.59-3.66
	c1.91,2.54-0.87,4.69-2.949,5.86C197.58,187.13,196.45,185.16,195.37,183.18z"/>
<path fill="#090909" d="M255.01,195.98c1.37-0.91,3-1.32,4.59-1.681c-0.08,0.521-0.229,1.56-0.31,2.08
	c-2.17,1.351-4.351,2.7-6.42,4.22C253.48,199.02,253.9,197.3,255.01,195.98z"/>
<path fill="#FFFFFF" d="M244.391,195.18c1.689,0.051,1.229,2.78-0.201,2.9C242.63,197.95,242.9,195.22,244.391,195.18z"/>
<path fill="#FFFFFF" d="M243.62,199.03c1.38-1.21,2.63,1.439,1.409,2.319C243.59,202.439,242.5,199.939,243.62,199.03z"/>
<path fill="#FFFFFF" d="M267.9,199.689c5.34-1.449,11.439,0.551,14.039,5.641C276.59,206.95,271.35,203.48,267.9,199.689z"/>
<path fill="#FFFFFF" d="M262.58,203.58c1.68-0.75,3.48-1.4,5.37-1.15c3.54,1.33,6.62,3.91,10.489,4.301
	c0.351,0.92,0.531,1.879,0.551,2.879c-3.16-0.189-6.58-0.369-9.27-2.229c-2.101-1.64-4.9-0.85-7.351-1.14
	C262.42,205.57,262.52,204.24,262.58,203.58z"/>
<path fill="#FFFFFF" d="M284.221,207.22c-2.291-0.409-2.851-4.17-0.4-4.739c3.459-0.24,7.34,0.569,9.359,3.67
	C290.77,208.34,287.16,207.609,284.221,207.22z"/>
<path fill="#FFFFFF" d="M255.221,207.28c2.34-1.021,4.93-0.86,7.299-0.021c0.11,2.17-0.68,4.6,0.59,6.561
	c0.291-0.061,0.871-0.17,1.15-0.221c0.16-2.24,0.66-4.41,1.51-6.479c0.711,0.069,2.131,0.21,2.84,0.29
	c1.17,3.029,0.94,6.3,0.801,9.49c-4.15-1.23-8.25-2.681-12.65-2.57C256.05,212.02,255.34,209.7,255.221,207.28z"/>
<path fill="#FFFFFF" d="M280.35,210.72c-0.1-1.2-0.18-2.399-0.229-3.61c2.13,0.24,4.29,0.591,6.09,1.86
	C284.76,210.811,282.439,210.63,280.35,210.72z"/>
<path fill="#FFFFFF" d="M287.73,208.35c3.879-0.52,4.609,3.561,3.43,6.36C289.84,212.689,288.73,210.54,287.73,208.35z"/>
<path fill="#FFFFFF" d="M270.42,210.87c0.641-0.38,1.92-1.12,2.561-1.49c2.26,0.96,4.549,2.36,7.119,1.82
	c0.851,1.58,2.07,3.03,2.45,4.81c-0.54,1.87-2.03,3.15-3.399,4.42c-1.211-1.869-2.08-3.92-2.641-6.07
	c-0.49-0.049-1.49-0.159-1.99-0.209c0.01,1.51,0.01,3.029,0,4.55C269.96,219.359,270.37,213.891,270.42,210.87z"/>
<path fill="#FFFFFF" d="M250.4,212.061c1.369-0.28,2.75-0.541,4.129-0.811c-0.01,0.609-0.029,1.83-0.039,2.439
	c-1.42,0.48-2.85,0.971-4.26,1.48C250.27,214.391,250.359,212.84,250.4,212.061z"/>
<path fill="#FFFFFF" d="M283.27,213.77c0.701-0.47,2.08-1.41,2.771-1.89c2.229,1.59,3.81,5.57,1.31,7.53
	c-1.27,0.21-2.529,0.38-3.8,0.51C283.41,217.87,283.359,215.82,283.27,213.77z"/>
<path fill="#090909" d="M169.5,213.5c1.57,1.49,3.08,3.27,5.48,3.01c-0.14,0.471-0.4,1.391-0.53,1.85
	c-1.37,0.041-2.75,0.091-4.12,0.141C169.81,216.88,169.47,215.2,169.5,213.5z"/>
<path fill="#FFFFFF" d="M242.13,215.34c1.88-0.529,3.82-0.93,5.79-0.72c0.801,1.149,0.561,2.649,0.82,3.96
	c-1.74,0.05-3.48,0.07-5.211,0.061C243.061,217.53,242.59,216.439,242.13,215.34z"/>
<path fill="#FFFFFF" d="M239.721,218.58c0.43-0.12,1.279-0.36,1.699-0.48c0.721,2.24,1.13,4.561,1.87,6.801
	c-2.21-0.181-4.28-0.9-6.271-1.801C237.93,221.6,238.859,220.109,239.721,218.58z"/>
<path fill="#FFFFFF" d="M280.3,221.15c1.4,0.34,2.8,0.66,4.2,1.02c0.05,0.61,0.141,1.84,0.189,2.45
	c-1.43-0.04-2.859-0.07-4.289-0.09C280.359,223.4,280.33,222.27,280.3,221.15z"/>
<path fill="#FFFFFF" d="M245.46,226.57c-1.21-1.99,1.45-3.12,2.49-4.391c2.87,1.101,2.61,4.051,2.78,6.601
	c1.47-0.72,2.92-1.48,4.42-2.15c2.68,1.931,0.399,5.11-0.84,7.19C251.23,231.57,247.87,229.58,245.46,226.57z"/>
<path fill="#FFFFFF" d="M257.391,223.24c2.02-0.07,3.739,0.63,4.789,2.42c1.301-1.59,2.94-2.721,5.08-2.58
	c0.16,0.79,0.49,2.359,0.66,3.14c1.561-1.409,3.141-3.79,5.57-2.67c2.779,2.05,4.39,5.25,6.779,7.71c-4.33,1.08-8.02-1.9-12.26-1.64
	c-3.84,0.149-7.039-2.39-10.68-3.25C257.35,225.32,257.37,224.28,257.391,223.24z"/>
<path fill="#FFFFFF" d="M229.67,298.48c0.52-0.101,1.58-0.301,2.109-0.41c6.691,3.76,12.141,9.22,17.91,14.18
	c1.48,1.471,5.15,2.529,3.9,5.189c-10.43,3.98-21.38,7.201-32.64,7.271c-3.14,0.011-6.229,0.62-9.37,0.64
	c1.43-3.029,4.05-5.24,5.55-8.22C220.561,310.45,224.75,304.15,229.67,298.48z"/>
</svg>
